<?xml version="1.0" encoding="utf-8"?>
<!-- Generator: Adobe Illustrator 26.5.0, SVG Export Plug-In . SVG Version: 6.00 Build 0)  -->
<svg version="1.1" id="Layer_1" xmlns="http://www.w3.org/2000/svg" xmlns:xlink="http://www.w3.org/1999/xlink" x="0px" y="0px"
	viewBox="0 0 276 504" style="enable-background:new 0 0 276 504;" xml:space="preserve">
<path d="M252.22,223.45V42.04h-18.04l-81.31,110.2c-2.15-0.11-4.31-0.17-6.48-0.17c-4.51,0-8.86,0.25-13.06,0.71L51.3,42.04H32.21
	v181.41h19.78V72.55l62.47,84.1c-25.68,8-41.65,25.71-41.65,46.82c0,23.91,17.7,39.3,53.44,45.9l29.15,5.5
	c28.8,5.5,40.95,16.49,40.95,32.71c0,17.18-12.8,30.55-35.81,34.98l-12.43-16.73h-11.8l-12.44,16.75
	c-20.33-3.42-37.67-12.52-46.2-27.3L63.1,305.72c8.59,15.01,27.68,25.5,50.95,30.09l-62.05,83.54v-150.9H32.21v181.41H51.3
	l82.68-111.63c2.49,0.13,5.01,0.2,7.54,0.2c3.48,0,6.86-0.14,10.15-0.38l82.5,111.81h18.04V268.45h-19.78v150.9l-62.46-84.08
	c29.7-7.08,47.88-25.42,47.88-48.24c0-24.19-19.78-40.13-54.13-46.18l-29.5-5.22c-26.72-4.67-39.91-15.12-39.91-32.98
	c0-15.39,10.64-28.02,29.46-33.43l12.52,16.86h11.8l13.66-18.39c17.76,3,33.04,11.18,40.82,24.79l14.92-10.44
	c-8.27-13.49-25.4-23.11-46.03-27.42l60.95-82.05v150.9H252.22z"/>
</svg>
